PathFileType  4	(X/Y/Z) C:\Users\antoi\Documents\MyRepositories\mobilecap\ResultsAnalysis
DataRate	CameraRate	NumFrames	NumMarkers	Units	OrigDataRate	OrigDataStartFrame	OrigNumFrames
100.0	100.0	5	51	mm	100.0	94	249
Frame#	Time	r_knee			r_shank_antsup			r_ankle			r_calc			r_5meta			r_toe			L_knee			L_shank_antsup			L_ankle			L_calc			L_5meta			L_toe			r_sh2			r_sh3			r_sh4			L_sh2			L_sh3			r_thigh1			r_thigh2			r_thigh3			r_thigh4			r_thigh5			L_thigh1			L_thigh2			L_thigh3			L_thigh4			r.ASIS			r.PSIS			L.ASIS			L.PSIS			C7			R_Shoulder			L_Shoulder			R_Sternum			L_Sternum			R_humerus			R_elbow_med			R_elbow_lat			R_forearm			R_wrist_radius			R_wrist_ulna			L_humerus			L_elbow_med			L_elbow_lat			L_forearm			L_wrist_radius			L_wrist_ulna			R_HJC			L_HJC			R_HJC_reg			L_HJC_reg			
		X1	Y1	Z1	X2	Y2	Z2	X3	Y3	Z3	X4	Y4	Z4	X5	Y5	Z5	X6	Y6	Z6	X7	Y7	Z7	X8	Y8	Z8	X9	Y9	Z9	X10	Y10	Z10	X11	Y11	Z11	X12	Y12	Z12	X13	Y13	Z13	X14	Y14	Z14	X15	Y15	Z15	X16	Y16	Z16	X17	Y17	Z17	X18	Y18	Z18	X19	Y19	Z19	X20	Y20	Z20	X21	Y21	Z21	X22	Y22	Z22	X23	Y23	Z23	X24	Y24	Z24	X25	Y25	Z25	X26	Y26	Z26	X27	Y27	Z27	X28	Y28	Z28	X29	Y29	Z29	X30	Y30	Z30	X31	Y31	Z31	X32	Y32	Z32	X33	Y33	Z33	X34	Y34	Z34	X35	Y35	Z35	X36	Y36	Z36	X37	Y37	Z37	X38	Y38	Z38	X39	Y39	Z39	X40	Y40	Z40	X41	Y41	Z41	X42	Y42	Z42	X43	Y43	Z43	X44	Y44	Z44	X45	Y45	Z45	X46	Y46	Z46	X47	Y47	Z47	X48	Y48	Z48	X49	Y49	Z49	X50	Y50	Z50	X51	Y51	Z51	

94	0.93000000	-720.84702	805.79644	-444.34802	-751.84496	743.63525	-420.92580	-967.21237	528.47771	-467.18209	-1033.75675	547.34833	-515.67482	-935.72381	420.51838	-427.09183	-885.90900	399.63143	-474.12546	-760.16424	816.78910	-769.34263	-769.67571	746.93827	-776.49659	-986.36061	527.31306	-736.42622	-1048.78423	548.59429	-675.93403	-966.62983	422.79458	-771.21468	-908.84287	397.99885	-727.66189	-826.86538	658.47511	-420.60334	-806.74550	791.10247	-439.38431	-888.62175	708.49008	-442.77658	-836.17535	807.08248	-781.79026	-908.07227	708.55504	-776.52670	-687.91669	1119.58452	-453.19575	-663.65966	1009.81950	-443.67787	-706.46114	980.19734	-400.63850	-781.46581	1104.92473	-390.00402	-762.70730	989.20598	-397.85248	-726.46075	1105.53876	-770.53214	-707.50371	968.59110	-780.13717	-842.82765	1091.62906	-767.72974	-815.14969	952.56709	-773.77442	-698.17928	1261.85896	-466.25664	-875.59589	1311.70351	-518.52574	-719.08946	1262.19078	-714.89456	-889.03289	1310.03202	-627.19986	-751.14149	1753.06178	-578.00114	-705.19621	1723.56562	-459.48897	-714.20496	1736.64469	-711.11648	-637.06763	1658.16423	-567.95771	-641.48979	1655.49298	-616.18180	-699.55812	1617.87906	-253.01109	-700.22304	1492.64386	-209.41718	-709.19939	1570.79750	-178.45541	-612.38814	1605.58521	-234.22856	-518.61537	1622.70137	-294.53573	-495.82571	1612.42403	-258.25791	-661.93205	1708.18750	-813.05652	-630.70993	1550.60015	-980.15865	-630.54818	1619.62589	-1007.58371	-554.89436	1653.09666	-925.20158	-486.59926	1652.04655	-826.05484	-457.85977	1643.58294	-847.99804	-775.92952	1199.13522	-483.63358	-790.38336	1201.90718	-683.38467	-772.75787	1196.63521	-491.30793	-792.96386	1194.12196	-654.72503	
95	0.94000000	-703.30480	810.17855	-443.22727	-734.50900	748.30733	-419.88698	-945.88254	529.40604	-468.76066	-1011.68078	546.08056	-518.76108	-912.74778	423.01725	-426.47940	-861.30379	402.60899	-471.96571	-743.20081	820.82975	-770.59494	-751.33574	751.48709	-778.67605	-969.20361	530.93534	-739.38480	-1031.43961	552.80154	-679.08997	-950.47902	426.40955	-774.73311	-892.69155	401.24248	-731.43705	-808.15755	662.17516	-419.98212	-789.63868	794.58250	-440.25124	-870.49034	710.57417	-443.55288	-818.37478	811.24305	-783.13548	-889.92743	712.48590	-779.49272	-676.45066	1124.16657	-453.72355	-650.09085	1015.17293	-443.57715	-691.74151	984.72779	-400.15513	-769.67126	1107.62107	-389.68733	-748.18425	992.41086	-397.00063	-715.27368	1109.83053	-770.11114	-693.28049	973.49120	-780.27689	-831.30802	1093.32772	-768.13881	-800.37423	955.01042	-774.67892	-688.65852	1263.83421	-466.21471	-866.37733	1314.35230	-517.89280	-709.60615	1264.58339	-714.91635	-880.01682	1312.59441	-626.40618	-738.88156	1755.81622	-578.42809	-694.05563	1725.95093	-459.89074	-702.75778	1739.05215	-711.90876	-626.11851	1660.32202	-569.02749	-630.28351	1657.53308	-616.96013	-695.66745	1623.69851	-252.02730	-700.62755	1499.99215	-206.04343	-707.99728	1578.38259	-177.25215	-607.94838	1608.14996	-229.88648	-511.37584	1620.51017	-287.10403	-490.23716	1609.97178	-249.92687	-654.56479	1710.69097	-814.80814	-630.38651	1553.42760	-983.80834	-629.40256	1622.61995	-1011.12281	-551.41012	1653.61414	-929.61250	-482.02485	1649.83658	-830.86303	-454.13832	1640.54690	-853.22693	-766.60201	1201.34901	-483.43689	-781.39473	1204.44657	-683.15801	-763.41451	1199.18320	-491.05160	-783.95623	1196.53555	-654.46940	
96	0.95000000	-686.42249	813.82529	-442.24605	-717.67183	751.61692	-418.76902	-922.73465	528.06615	-469.74732	-988.72230	542.58675	-520.16443	-886.81785	423.27935	-426.62654	-834.45609	403.86372	-471.65364	-726.12661	824.07300	-771.84234	-733.42829	754.85209	-780.44098	-951.45117	533.29080	-743.03524	-1014.28258	555.09007	-683.49112	-932.02325	428.43998	-777.80933	-874.53743	403.83100	-733.83451	-789.55792	663.72067	-420.26636	-773.31106	796.67349	-440.86292	-852.44883	711.14349	-445.23095	-800.65615	814.30370	-784.31841	-872.18879	715.45348	-782.57384	-665.59234	1128.01357	-454.11625	-636.87470	1019.78663	-443.88609	-677.28078	988.66769	-399.61003	-757.88801	1109.83619	-389.10683	-733.89192	995.07816	-396.09077	-703.68679	1113.46613	-769.69069	-678.90183	977.73113	-780.46145	-819.40568	1094.60960	-768.73917	-785.62015	956.95720	-776.05471	-679.33135	1265.16234	-466.12987	-857.55834	1315.57358	-517.36995	-701.11700	1266.18032	-715.13547	-871.33280	1313.84991	-625.66291	-726.22062	1757.40966	-579.11965	-682.61063	1727.38057	-459.90780	-691.15558	1740.30307	-712.78786	-614.97453	1661.85774	-570.04507	-618.88088	1658.76591	-617.55846	-691.35319	1628.21360	-251.38727	-700.96943	1506.03028	-203.66794	-706.30278	1584.71295	-176.61172	-603.09927	1609.18272	-225.59335	-503.83792	1616.54574	-279.48026	-484.50078	1605.71264	-241.11761	-646.67430	1711.31024	-816.35948	-630.45754	1554.77588	-986.98844	-628.23074	1623.96672	-1014.11170	-547.78871	1651.89264	-933.74932	-476.74027	1645.17624	-835.87418	-449.83399	1635.13456	-858.81267	-757.32935	1202.61328	-483.32066	-772.77532	1205.92220	-682.98865	-754.32042	1200.41654	-490.91991	-775.13413	1197.81199	-654.55462	
97	0.96000000	-669.83516	816.62868	-441.51598	-700.83967	753.84024	-418.14529	-898.27550	524.56972	-470.04980	-964.94859	537.18144	-520.33163	-858.92711	420.98666	-427.37040	-806.10051	403.37645	-472.68980	-709.09510	826.56234	-773.15282	-716.14900	757.00809	-781.64968	-932.76970	534.24087	-746.97908	-996.92326	555.53493	-688.66319	-911.38959	429.06896	-780.38844	-854.51243	405.52621	-734.95379	-770.55438	663.80444	-419.89414	-757.40991	797.34583	-441.30642	-834.02910	709.90940	-446.83887	-783.33855	816.28754	-785.86410	-854.81400	717.17808	-785.16811	-655.20887	1131.20410	-454.48417	-624.09248	1023.52680	-444.37605	-663.39550	991.92191	-399.32306	-746.27643	1111.42664	-388.58204	-719.99421	997.09913	-395.12317	-691.91311	1116.38349	-769.46731	-664.53167	981.14450	-780.57678	-807.27004	1095.45182	-769.69158	-771.12320	958.41066	-777.77098	-670.23935	1265.95533	-466.20688	-849.02764	1315.50163	-516.87269	-693.08439	1267.15568	-715.31953	-862.81091	1313.91848	-625.18039	-713.12403	1758.41296	-579.84056	-670.84317	1727.77694	-459.84811	-679.38509	1740.35378	-713.86822	-603.51892	1662.26467	-570.58115	-607.27708	1659.14456	-617.97297	-686.59947	1631.35711	-251.21005	-700.97108	1510.76798	-201.90704	-704.03519	1589.75265	-176.57440	-597.82917	1608.74007	-221.32333	-496.21973	1610.82272	-271.44477	-478.78223	1599.67274	-232.07330	-638.26114	1710.20350	-818.41644	-630.81561	1554.70973	-989.60029	-626.98734	1623.85826	-1016.61225	-544.07934	1648.23924	-937.55185	-471.26923	1638.64459	-841.10422	-445.04939	1627.46573	-864.69249	-748.03349	1203.03062	-483.31886	-764.18060	1206.51123	-682.92899	-745.32805	1200.64768	-491.11070	-766.16871	1198.25387	-654.87910	
98	0.97000000	-653.53623	818.73617	-440.94266	-683.60224	754.97683	-417.96830	-873.00467	519.17665	-470.11158	-940.44255	529.87854	-520.00193	-829.67556	416.58881	-428.57352	-776.42804	401.68452	-474.50751	-692.44357	828.34090	-774.43272	-699.10454	758.33052	-782.79155	-913.07620	533.50112	-750.72451	-978.91985	554.18284	-693.97909	-889.35179	428.06371	-782.20790	-833.18017	405.97405	-735.22734	-750.57750	662.86399	-419.00394	-741.24852	796.55012	-441.43991	-814.99901	706.90556	-447.28908	-766.57293	817.24339	-787.82266	-837.40848	717.46298	-787.45060	-644.90892	1133.55897	-454.98597	-611.66998	1026.40769	-444.61987	-650.00104	994.38664	-399.10348	-734.92651	1112.26085	-388.21335	-706.50144	998.34544	-394.29265	-680.17298	1118.52962	-769.40239	-650.49788	983.71219	-780.64123	-795.13164	1095.65063	-771.04077	-756.95442	959.31610	-779.79365	-661.37553	1266.17528	-466.39617	-840.61159	1314.32738	-516.45695	-684.69110	1267.61094	-715.59497	-854.45593	1312.75042	-624.86710	-699.41402	1759.14631	-580.25768	-658.94052	1727.12498	-459.83387	-667.32147	1739.30693	-715.31544	-591.73068	1661.42403	-570.68255	-595.47267	1658.59109	-618.19773	-681.27561	1633.13921	-251.50470	-700.56371	1514.43013	-200.81525	-701.13801	1593.68971	-176.97949	-592.17621	1606.92788	-217.07973	-488.68940	1603.53123	-262.97211	-473.28520	1591.85875	-223.06781	-629.34907	1707.55859	-820.72067	-631.37194	1553.44925	-991.65643	-625.71023	1622.64330	-1018.68409	-540.23211	1643.03562	-941.27654	-465.63342	1630.20583	-846.59620	-440.16488	1617.76645	-870.77720	-738.58130	1202.61722	-483.45635	-755.20428	1206.31777	-683.02364	-736.07966	1200.30543	-491.34011	-757.00316	1197.92201	-655.18416	
